<?xml version="1.0" encoding="UTF-8"?>
<svg width="393px" height="263px" viewBox="0 0 393 263" version="1.1" xmlns="http://www.w3.org/2000/svg" xmlns:xlink="http://www.w3.org/1999/xlink">
    <title>Path 21</title>
    <g id="Page-1" stroke="none" stroke-width="1" fill="none" fill-rule="evenodd" stroke-linecap="round" stroke-linejoin="round">
        <path d="M60.0859375,187.992188 C49.1588535,187.763021 38.2289599,186.967121 27.3046875,187.304688 C25.3217973,187.36596 23.2453193,187.992057 21.65625,189.179688 C-5.46858223,209.452107 21.2871211,247.153088 47.25,252.585938 C69.0518267,257.148068 71.2107788,216.896945 68.9609375,200.703125 C68.8408868,199.839029 67.2325992,198.340633 66.8671875,199.132813 C61.3464807,211.10121 84.3166964,237.363409 97.3359375,231.726563 C99.2970955,230.877454 99.6152153,228.043408 100.1875,225.984375 C102.128501,219.000814 104.374582,211.975773 104.835938,204.742188 C106.786191,174.164182 107.859946,134.286356 92.296875,105.71875 C91.6278498,104.490686 89.2574833,101.610243 89.1015625,103 C88.372628,109.497156 88.6050342,116.28541 90.40625,122.570313 C91.2351201,125.462452 114.910568,214.53165 143.914063,202.765625 C157.784624,197.13867 156.253018,171.495929 145.46875,163.882813 C137.976164,158.593448 124.070922,160.273843 117.132813,161.28125 C112.604156,161.938807 126.309165,162.35161 130.851563,161.796875 C133.812085,161.435324 136.561719,159.970997 139.203125,158.585938 C143.964249,156.089374 149.017754,153.832478 152.976563,150.195313 C155.557605,147.823973 155.051149,139.643818 158.242188,141.09375 C162.274392,142.925888 159.353597,150.063087 161.367188,154.007813 C165.035063,161.193368 169.613651,168.006488 175.03125,173.984375 C179.246995,178.636112 184.666605,182.081488 189.921875,185.515625 C191.57637,186.59678 193.588946,187.120876 195.546875,187.390625 C198.183428,187.75387 200.9652,188.096848 203.53125,187.390625 C205.370186,186.884517 206.948585,185.462763 208.09375,183.9375 C210.077943,181.294723 212.025392,178.396913 212.710938,175.164063 C215.336,162.784961 205.79158,144.560988 191.570313,143.296875 C182.375388,142.479548 162.986465,151.906308 163.882813,142.71875 C164.818407,133.128902 182.891145,139.395219 192.195313,136.890625 C197.862417,135.365094 203.512217,133.475078 208.664063,130.664063 C232.521387,117.646726 213.799909,127.414944 222.21875,115.703125 C222.80547,114.886912 221.856322,117.781152 222.21875,118.71875 C223.608211,122.313272 225.116102,125.945897 227.382813,129.0625 C231.09057,134.160462 235.44123,138.794431 239.992188,143.15625 C243.617293,146.630696 247.400913,150.100665 251.820313,152.484375 C254.807796,154.095747 258.335196,155.145441 261.71875,154.875 C264.509608,154.651932 267.186277,153.019289 269.21875,151.09375 C274.579906,146.014659 279.874929,140.602805 283.546875,134.195313 C286.378038,129.254974 287.528197,123.429939 288.304688,117.789063 C289.373072,110.027696 288.918545,102.130503 289.039063,94.296875 C289.089289,91.0321792 287.779339,100.897143 288.515625,104.078125 C290.218915,111.436855 292.762045,118.67498 296.234375,125.382813 C298.152306,129.087865 301.365972,132.012538 304.4375,134.835938 C305.689324,135.986635 307.327083,136.813021 309,137.117188 C311.618529,137.593284 314.828654,138.67803 316.984375,137.117188 C320.397718,134.645768 322.425621,130.438105 323.75,126.4375 C326.003807,119.629333 327.115511,112.417278 327.53125,105.257813 C328.38028,90.636609 328.397781,75.9404894 327.53125,61.3203125 C326.72536,47.7232704 324.64021,34.221043 322.523438,20.765625 C322.019545,17.5625956 320.436466,8.3062021 319.6875,11.4609375 C314.002507,35.4068162 326.688303,69.0014102 340.265625,88.65625 C347.241284,98.7543723 370.221981,117.638852 378.320312,95.390625 C380.758376,88.6926285 380.439696,81.2603061 382.3125,74.3828125 C383.418454,70.321422 382.066525,82.9408506 380.632812,86.8984375 C379.239631,90.7441449 376.615011,94.0712885 374.03125,97.2421875 C372.757652,98.8051994 371.203798,100.553202 369.21875,100.90625 C364.037045,101.827835 358.570053,102.035865 353.429688,100.90625 C349.612842,100.067484 346.425349,97.3872049 343.195312,95.1875 C341.667221,94.1468463 340.215633,92.8563138 339.273438,91.265625 C336.000754,85.7404209 332.528486,80.176351 330.664062,74.03125 C329.417783,69.9235392 328.033345,64.9038314 330.140625,61.1640625 C337.060029,48.8842626 347.734375,39.1380208 356.53125,28.125" id="Path-21" stroke="#FF9C09" stroke-width="20"></path>
    </g>
</svg>
