<?xml version="1.0" encoding="UTF-8"?>
<svg width="261px" height="156px" viewBox="0 0 261 156" version="1.1" xmlns="http://www.w3.org/2000/svg" xmlns:xlink="http://www.w3.org/1999/xlink">
    <title>Path 26</title>
    <g id="Page-1" stroke="none" stroke-width="1" fill="none" fill-rule="evenodd" stroke-linecap="round" stroke-linejoin="round">
        <path d="M10.203125,77.90625 C199.490335,76.5881906 43.3723597,82.6770792 183.976562,67.1328125 C205.599306,64.7423456 236.030151,79.9461788 249.078125,62.5390625 C258.965822,49.3480262 224.376599,40.6910944 211.664062,30.1953125 C203.311069,23.2988757 195.866454,14.640474 185.90625,10.3828125 C183.272129,9.25681211 184.79745,16.1566874 185.382812,18.9609375 C187.932198,31.1740732 192.602398,42.8747092 195.234375,55.0703125 C200.831952,81.0074079 204.741213,107.284466 210.054687,133.28125 C210.880698,137.322602 211.864999,141.401833 213.640625,145.125 C213.93657,145.745542 215.327422,145.700764 215.703125,145.125 C226.755034,128.187981 238.104675,106.013263 241.585938,85.9609375 C247.570935,51.4869111 237.376185,87.7117374 244.789062,63.2734375" id="Path-26" stroke="#000000" stroke-width="20"></path>
    </g>
</svg>