<?xml version="1.0" encoding="UTF-8"?>
<svg width="707px" height="314px" viewBox="0 0 707 314" version="1.1" xmlns="http://www.w3.org/2000/svg" xmlns:xlink="http://www.w3.org/1999/xlink">
    <title>Path 19</title>
    <g id="Page-1" stroke="none" stroke-width="1" fill="none" fill-rule="evenodd" stroke-linecap="round" stroke-linejoin="round">
        <path d="M25.25,303.523438 C22.2532417,271.03463 11.710493,239.411583 10.546875,206.921875 C9.91147333,189.180645 10.1008262,171.411062 10.546875,153.664063 C10.7852349,144.180406 16.7760633,123.876346 27.984375,122.109375 C66.5878411,116.023605 81.3060612,202.820498 86.078125,225.132813 C87.4307779,231.457292 83.2188707,241.24877 88.90625,244.328125 C94.8651798,247.554507 86.5306597,217.095371 86.40625,215.945313 C85.356733,206.243448 84.8105763,196.482443 84.5859375,186.726563 C84.2035316,170.118985 83.5202565,153.468386 84.5859375,136.890625 C84.7675788,134.065008 86.3141746,131.278782 88.28125,129.242188 C89.786333,127.683913 92.1624665,127.086491 94.3125,126.820313 C131.163203,122.258125 140.144616,179.661556 149.492188,201.804688 C161.396406,230.00417 174.127347,246.367252 206.125,249.796875 C242.155705,253.658775 279.650194,204.363301 285.054688,171.195313 C287.227438,157.860895 289.459502,137.216298 274.390625,129.21875 C238.366805,110.099725 225.50014,150.338967 232.101563,177.890625 C238.867654,206.129544 287.013438,217.766453 309.429688,220.507813 C315.690369,221.273452 329.260803,222.089121 336.265625,217.765625 C356.363621,205.360798 351.006598,139.056976 350.601563,127.210938 C350.488744,123.911352 343.807856,116.526123 346.03125,121.117188 C351.780539,132.988839 358.579412,144.33766 364.210938,156.265625 C366.202955,160.484857 367.713915,164.945701 368.859375,169.46875 C370.765684,176.996141 369.574629,185.539211 373.34375,192.328125 C377.772137,200.304503 385.37054,206.16764 392.4375,211.9375 C393.606967,212.892318 392.622915,208.747748 391.859375,207.445313 C389.3488,203.162808 384.784163,200.158452 382.851563,195.585938 C377.261081,182.358912 373.565697,168.398731 369.53125,154.617188 C368.274407,150.323853 367.223303,145.905443 367,141.4375 C366.602716,133.488467 366.619369,125.458321 367.679688,117.570313 C368.098611,114.453818 369.50411,111.418036 371.375,108.890625 C380.635987,96.3798261 401.137992,98.2368168 412.671875,106.757813 C436.958116,124.699989 455.835274,147.973588 480.257813,166.367188 C485.173537,170.069418 492.466991,174.910101 499.320313,172.015625 C506.638954,168.924623 510.921293,148.330759 511.25,143.09375 C512.975418,115.60417 513.274795,91.9612068 496.328125,69.5234375 C495.514865,68.4466632 495.736183,72.4127782 496.429688,73.5703125 C507.211642,91.5665533 518.288995,109.426572 530.46875,126.507813 C534.005258,131.467513 538.465278,135.845489 543.390625,139.429688 C550.07467,144.2937 557.183115,148.890881 564.984375,151.625 C570.902967,153.699298 580.516133,152.725303 584.953125,147.328125 C615.089418,110.670191 606.735734,86.3824554 605.164063,34.0859375 C605.091627,31.6756897 603.910772,29.3670777 602.6875,27.2890625 C599.146472,21.2737922 595.204339,15.4815145 590.953125,9.9453125 C590.613066,9.50246639 614.172511,47.7644819 619.195312,56.3984375 C625.700167,67.5799699 630.11204,79.9179748 636.875,90.9453125 C639.110389,94.5902247 642.495388,97.4896846 645.945313,100.015625 C650.346235,103.237861 655.247977,105.768521 660.210938,108.03125 C665.59163,110.484433 671.110126,112.799546 676.875,114.117188 C680.849058,115.025513 685.888671,117.151873 689.09375,114.632812 C696.756053,108.610557 696.078483,85.1095319 696.484375,78.8671875" id="Path-19" stroke="#2200A9" stroke-width="20"></path>
    </g>
</svg>
