<?xml version="1.0" encoding="UTF-8"?>
<svg width="543px" height="365px" viewBox="0 0 543 365" version="1.1" xmlns="http://www.w3.org/2000/svg" xmlns:xlink="http://www.w3.org/1999/xlink">
    <title>Path 20</title>
    <g id="Page-1" stroke="none" stroke-width="1" fill="none" fill-rule="evenodd" stroke-linecap="round" stroke-linejoin="round">
        <path d="M11.375,354.632813 C13.2326324,301.348094 14.198665,292.099942 13.3046875,237.015625 C13.2819043,235.611788 3.3672741,177.1798 23.328125,170.367188 C37.0877224,165.671055 46.6543154,175.86588 51.78125,187.515625 C61.690865,210.032878 64.2996268,232.018181 48.828125,252.46875 C42.4588991,260.887732 27.496369,266.132902 17.671875,260.578125 C13.2649969,258.086472 27.8301958,261.158007 32.859375,260.578125 C37.7670158,260.012257 42.6504309,258.884719 47.28125,257.164063 C49.7673418,256.240314 51.9166476,254.511507 53.90625,252.757813 C57.9178751,249.221847 61.9709053,245.627346 65.203125,241.367188 C68.2117333,237.401756 70.5701366,232.920181 72.453125,228.3125 C74.5511238,223.178687 76.5826405,217.852598 77.0703125,212.328125 C78.1348958,200.268251 66.7505578,169.677207 77.0703125,176.007813 C91.3780636,184.784836 86.77026,208.388382 94.734375,223.164063 C99.1597056,231.3743 89.20302,205.269832 87.8671875,196.039063 C86.8967009,189.332879 87.1642456,182.450419 87.8671875,175.710938 C88.0599669,173.862658 89.269894,172.189764 90.5,170.796875 C91.2655371,169.930032 92.4507497,169.40267 93.59375,169.226563 C102.166076,167.905786 111.105903,168.692442 119.453125,166.335938 C123.578965,165.171171 127.136704,155.748439 129.984375,158.953125 C134.243132,163.745806 128.850495,171.877103 129.984375,178.1875 C132.865516,194.221953 139.279778,207.329635 156.039063,210.625 C161.85534,211.76865 165.711626,212.540346 169.320313,208.898438 C170.921685,207.282323 172.616873,205.699338 173.828125,203.773438 C175.66594,200.851296 177.897217,197.893144 178.390625,194.476562 C179.24466,188.562834 179.492664,182.280179 177.757813,176.5625 C168.223971,145.141107 76.8259342,166.095563 180.820313,154.351562 C185.226483,153.853977 189.422216,152.155462 193.617188,150.71875 C195.230236,150.166306 196.94715,149.584371 198.179688,148.40625 C200.565828,146.125457 203.327416,143.744129 204.234375,140.570312 C205.62331,135.709865 201.101975,128.913348 204.75,125.414062 C207.654808,122.627691 206.378446,133.341536 207.875,137.078125 C210.457698,143.526593 214.346053,149.398793 216.9375,155.84375 C245.121301,225.937159 259.603909,252.150618 258.6875,322.148438 C258.665605,323.820844 257.990115,325.494175 257.09375,326.90625 C253.48094,332.597634 249.705359,338.238765 245.257813,343.304688 C243.779552,344.988481 241.655691,346.075647 239.5625,346.875 C237.182642,347.783827 234.595943,348.076623 232.0625,348.34375 C209.996467,350.670398 201.323004,310.158423 200.101563,295.539062 C198.626769,277.887353 197.46745,260.029541 199.25,242.40625 C199.80235,236.94541 207.984508,223.110704 212.8125,217.65625 C229.735135,198.537795 247.673252,180.320966 264.273438,160.921875 C268.067379,156.488249 272.109913,151.848547 273.882813,146.289062 C275.074362,142.552585 274.35972,138.126027 272.671875,134.585937 C268.359804,125.541788 244.110933,118.475495 241.492188,132.445312 C236.625796,158.405297 255.310576,195.505184 285.992188,186.960937 C314.389002,179.052964 309.587567,127.226402 321.804688,105.5625 C322.836418,103.732992 324.866979,102.568966 326.773438,101.6875 C328.634662,100.826948 330.757138,100.587222 332.804688,100.476562 C338.255067,100.181999 354.582453,99.6996942 349.179688,100.476562 C342.591581,101.423872 335.519423,98.8469435 329.21875,100.992187 C312.857743,106.56276 312.908097,126.846412 315.523438,139.835937 C320.169379,162.910778 349.451786,173.827136 369.351563,172.578125 C376.073398,172.156229 395.15489,144.557295 397.148438,140.546875 C400.716169,133.369669 402.896625,125.501536 404.460938,117.640625 C406.331467,108.24093 406.901785,98.6101905 407.398437,89.0390625 C407.882235,79.7156685 408.437843,70.3091467 407.398437,61.03125 C405.88788,47.5477798 403.074363,34.2089859 399.78125,21.046875 C398.902987,17.5365833 397.556058,8.79863839 394.960937,11.3203125 C392.005354,14.1922478 396.141769,19.5050282 397.296875,23.4609375 C399.815872,32.0877858 404.694878,40.094719 405.960938,48.9921875 C412.518938,95.0797451 394.627943,116.761719 439.164063,137.265625 C441.349796,138.271911 444.210019,138.299554 446.382812,137.265625 C453.407811,133.922763 457.20591,129.09586 458.296875,121.78125 C458.960034,117.334958 459.233742,103.828992 458.8125,108.304687 C458.370455,113.001411 459.127067,117.813066 458.234375,122.445312 C455.347967,137.4231 430.509679,139.738766 424.171875,125.828125 C419.257685,115.042128 416.735594,103.262121 414.367188,91.6484375 C410.386507,72.1288287 419.140838,74.3542485 432.421875,57.2109375 C434.614468,54.3807142 440.258179,45.4152601 437.578125,47.7890625 C420.016251,63.3441297 407.876172,80.6219639 420.148437,103.664062 C421.4175,106.046822 444.578091,137.34065 451.171875,129.234375 C455.725905,123.635735 458.018438,104.814562 459.726562,100.1875 C471.06787,69.4655482 471.347023,85.2683594 474.367187,58.5703125 C475.22855,50.9559297 474.737457,43.2165262 475.78125,35.625 C476.35772,31.4323185 475.584616,25.5932705 479.203125,23.3984375 C481.833188,21.8031532 479.889963,29.585697 481.023437,32.4453125 C481.923104,34.7150602 483.430574,36.7731084 485.179688,38.4765625 C488.667848,41.8736663 492.399437,45.115444 496.585938,47.6015625 C509.166762,55.0725798 527.862767,59.4473515 530.726563,77.3125 C532.220718,86.6334543 533.40261,96.2951297 531.867188,105.609375 C531.243751,109.391293 527.31721,111.818526 524.59375,114.515625 C510.234929,128.735462 499.631416,108.914626 495.429688,97.8515625" id="Path-20" stroke="#FF9C09" stroke-width="20"></path>
    </g>
</svg>
